Coordinates
version=1
nRows=32
nColumns=12
inDegrees=yes

Units are S.I. units (second, meters, Newtons, ...)
Angles are in degrees

endheader
time	SC_y	SC_z	SC_x	AC_y	AC_z	AC_x	GH_y	GH_z	GH_yy	EL_x	PS_y
       0.0              -22.68           29.2          71.06          49.35          5.364         -13.95         -44.07         -6.967          34.36          133.5          149.1
  0.002761              -22.68           29.2          71.06          49.35          5.362         -13.94         -44.04         -6.954          34.33          133.5          149.1
  0.005523              -22.68           29.2          71.05          49.34          5.359         -13.94         -44.02         -6.941           34.3          133.5          149.1
  0.008284              -22.69           29.2          71.05          49.34          5.356         -13.93         -43.99         -6.927          34.27          133.5          149.1
   0.01105              -22.69           29.2          71.04          49.34          5.353         -13.93         -43.97         -6.912          34.24          133.5          149.1
   0.01381              -22.69           29.2          71.04          49.34          5.349         -13.92         -43.94         -6.896           34.2          133.5          149.0
   0.01657               -22.7           29.2          71.03          49.34          5.346         -13.92          -43.9         -6.878          34.16          133.4          149.0
   0.01933               -22.7           29.2          71.03          49.34          5.342         -13.91         -43.87          -6.86          34.12          133.4          149.0
   0.02209               -22.7           29.2          71.02          49.33          5.338          -13.9         -43.84          -6.84          34.08          133.4          149.0
   0.02485              -22.71           29.2          71.02          49.33          5.333          -13.9          -43.8         -6.819          34.03          133.4          149.0
   0.02761              -22.71           29.2          71.01          49.33          5.328         -13.89         -43.76         -6.796          33.98          133.4          148.9
   0.03037              -22.72           29.2          71.01          49.33          5.323         -13.88         -43.71         -6.772          33.93          133.3          148.9
   0.03314              -22.72           29.2           71.0          49.32          5.318         -13.87         -43.66         -6.746          33.87          133.3          148.9
    0.0359              -22.73           29.2          70.99          49.32          5.312         -13.86         -43.61         -6.717          33.81          133.3          148.8
   0.03866              -22.73           29.2          70.98          49.32          5.305         -13.85         -43.56         -6.686          33.74          133.2          148.8
   0.04142              -22.74           29.2          70.97          49.31          5.298         -13.84         -43.49         -6.653          33.67          133.2          148.8
   0.04418              -22.75           29.2          70.96          49.31          5.291         -13.83         -43.43         -6.617          33.59          133.2          148.7
   0.04694              -22.75           29.2          70.95           49.3          5.282         -13.81         -43.36         -6.577          33.51          133.1          148.7
    0.0497              -22.76           29.2          70.94           49.3          5.273          -13.8         -43.28         -6.534          33.41          133.1          148.6
   0.05246              -22.77           29.2          70.93          49.29          5.263         -13.78         -43.19         -6.487          33.31          133.0          148.6
   0.05523              -22.78           29.2          70.91          49.29          5.252         -13.77          -43.1         -6.435           33.2          133.0          148.5
   0.05799              -22.79           29.2           70.9          49.28           5.24         -13.75         -42.99         -6.378          33.07          132.9          148.5
   0.06075               -22.8           29.2          70.88          49.27          5.227         -13.72         -42.88         -6.315          32.93          132.8          148.4
   0.06351              -22.82           29.2          70.86          49.27          5.212          -13.7         -42.75         -6.245          32.78          132.8          148.3
   0.06627              -22.83           29.2          70.84          49.26          5.196         -13.67         -42.61         -6.167          32.61          132.7          148.2
   0.06903              -22.85           29.2          70.82          49.25          5.178         -13.65         -42.45          -6.08          32.42          132.6          148.1
   0.07179              -22.87           29.2          70.79          49.24          5.157         -13.61         -42.28         -5.983          32.21          132.5          148.0
   0.07455              -22.89           29.2          70.76          49.22          5.134         -13.57         -42.08         -5.874          31.97          132.4          147.9
   0.07732              -22.91           29.2          70.73          49.21          5.108         -13.53         -41.85          -5.75           31.7          132.2          147.8
   0.08008              -22.94           29.2          70.69          49.19          5.079         -13.49          -41.6          -5.61           31.4          132.1          147.6
   0.08284              -22.97           29.2          70.65          49.18          5.045         -13.43         -41.31          -5.45          31.05          131.9          147.4
    0.0856               -23.0           29.2           70.6          49.16          5.007         -13.37         -40.97         -5.266          30.65          131.7          147.2
